<svg xmlns="http://www.w3.org/2000/svg" style="display: none;">
  <!-- 播放按钮 -->
  <symbol id="icon-play" viewBox="0 0 24 24">
    <path fill="currentColor" d="M8 5v14l11-7z"/>
  </symbol>
  
  <!-- 暂停按钮 -->
  <symbol id="icon-pause" viewBox="0 0 24 24">
    <path fill="currentColor" d="M6 19h4V5H6v14zm8-14v14h4V5h-4z"/>
  </symbol>
  
  <!-- 停止按钮 -->
  <symbol id="icon-stop" viewBox="0 0 24 24">
    <path fill="currentColor" d="M6 6h12v12H6z"/>
  </symbol>
  
  <!-- 上一首 -->
  <symbol id="icon-skip-previous" viewBox="0 0 24 24">
    <path fill="currentColor" d="M6 6h2v12H6zm3.5 6l8.5 6V6z"/>
  </symbol>
  
  <!-- 下一首 -->
  <symbol id="icon-skip-next" viewBox="0 0 24 24">
    <path fill="currentColor" d="M6 18l8.5-6L6 6v12zM16 6v12h2V6h-2z"/>
  </symbol>
  
  <!-- 循环播放 -->
  <symbol id="icon-repeat" viewBox="0 0 24 24">
    <path fill="currentColor" d="M7 7h10v3l4-4-4-4v3H5v6h2V7zm10 10H7v-3l-4 4 4 4v-3h12v-6h-2v4z"/>
  </symbol>
  
  <!-- 单曲循环 -->
  <symbol id="icon-repeat-one" viewBox="0 0 24 24">
    <path fill="currentColor" d="M7 7h10v3l4-4-4-4v3H5v6h2V7zm10 10H7v-3l-4 4 4 4v-3h12v-6h-2v4zm-4-2V9h-1l-2 1v1h1.5v4H13z"/>
  </symbol>
  
  <!-- 随机播放 -->
  <symbol id="icon-shuffle" viewBox="0 0 24 24">
    <path fill="currentColor" d="M10.59 9.17L5.41 4 4 5.41l5.17 5.17 1.42-1.41zM14.5 4l2.04 2.04L4 18.59 5.41 20 17.96 7.46 20 9.5V4h-5.5zm.33 9.41l-1.41 1.41 3.13 3.13L14.5 20H20v-5.5l-2.04 2.04-3.13-3.13z"/>
  </symbol>
  
  <!-- 音量图标 -->
  <symbol id="icon-volume-up" viewBox="0 0 24 24">
    <path fill="currentColor" d="M3 9v6h4l5 5V4L7 9H3zm13.5 3c0-1.77-1.02-3.29-2.5-4.03v8.05c1.48-.73 2.5-2.25 2.5-4.02zM14 3.23v2.06c2.89.86 5 3.54 5 6.71s-2.11 5.85-5 6.71v2.06c4.01-.91 7-4.49 7-8.77s-2.99-7.86-7-8.77z"/>
  </symbol>
  
  <!-- 静音图标 -->
  <symbol id="icon-volume-off" viewBox="0 0 24 24">
    <path fill="currentColor" d="M16.5 12c0-1.77-1.02-3.29-2.5-4.03v2.21l2.45 2.45c.03-.2.05-.41.05-.63zm2.5 0c0 .94-.2 1.82-.54 2.64l1.51 1.51C20.63 14.91 21 13.5 21 12c0-4.28-2.99-7.86-7-8.77v2.06c2.89.86 5 3.54 5 6.71zM4.27 3L3 4.27 7.73 9H3v6h4l5 5v-6.73l4.25 4.25c-.67.52-1.42.93-2.25 1.18v2.06c1.38-.31 2.63-.95 3.69-1.81L19.73 21 21 19.73l-9-9L4.27 3zM12 4L9.91 6.09 12 8.18V4z"/>
  </symbol>
  
  <!-- 搜索图标 -->
  <symbol id="icon-search" viewBox="0 0 24 24">
    <path fill="currentColor" d="M15.5 14h-.79l-.28-.27C15.41 12.59 16 11.11 16 9.5 16 5.91 13.09 3 9.5 3S3 5.91 3 9.5 5.91 16 9.5 16c1.61 0 3.09-.59 4.23-1.57l.27.28v.79l5 4.99L20.49 19l-4.99-5zm-6 0C7.01 14 5 11.99 5 9.5S7.01 5 9.5 5 14 7.01 14 9.5 11.99 14 9.5 14z"/>
  </symbol>
  
  <!-- 设置图标 -->
  <symbol id="icon-settings" viewBox="0 0 24 24">
    <path fill="currentColor" d="M19.14,12.94c0.04-0.3,0.06-0.61,0.06-0.94c0-0.32-0.02-0.64-0.07-0.94l2.03-1.58c0.18-0.14,0.23-0.41,0.12-0.61 l-1.92-3.32c-0.12-0.22-0.37-0.29-0.59-0.22l-2.39,0.96c-0.5-0.38-1.03-0.7-1.62-0.94L14.4,2.81c-0.04-0.24-0.24-0.41-0.48-0.41 h-3.84c-0.24,0-0.43,0.17-0.47,0.41L9.25,5.35C8.66,5.59,8.12,5.92,7.63,6.29L5.24,5.33c-0.22-0.08-0.47,0-0.59,0.22L2.74,8.87 C2.62,9.08,2.66,9.34,2.86,9.48l2.03,1.58C4.84,11.36,4.8,11.69,4.8,12s0.02,0.64,0.07,0.94l-2.03,1.58 c-0.18,0.14-0.23,0.41-0.12,0.61l1.92,3.32c0.12,0.22,0.37,0.29,0.59,0.22l2.39-0.96c0.5,0.38,1.03,0.7,1.62,0.94l0.36,2.54 c0.05,0.24,0.24,0.41,0.48,0.41h3.84c0.24,0,0.44-0.17,0.47-0.41l0.36-2.54c0.59-0.24,1.13-0.56,1.62-0.94l2.39,0.96 c0.22,0.08,0.47,0,0.59-0.22l1.92-3.32c0.12-0.22,0.07-0.47-0.12-0.61L19.14,12.94z M12,15.6c-1.98,0-3.6-1.62-3.6-3.6 s1.62-3.6,3.6-3.6s3.6,1.62,3.6,3.6S13.98,15.6,12,15.6z"/>
  </symbol>
  
  <!-- 文件夹图标 -->
  <symbol id="icon-folder" viewBox="0 0 24 24">
    <path fill="currentColor" d="M10 4H4c-1.11 0-2 .89-2 2v12c0 1.11.89 2 2 2h16c1.11 0 2-.89 2-2V8c0-1.11-.89-2-2-2h-8l-2-2z"/>
  </symbol>
  
  <!-- 音乐文件图标 -->
  <symbol id="icon-music" viewBox="0 0 24 24">
    <path fill="currentColor" d="M12 3v10.55c-.59-.34-1.27-.55-2-.55-2.21 0-4 1.79-4 4s1.79 4 4 4 4-1.79 4-4V7h4V3h-6z"/>
  </symbol>
  
  <!-- 歌词图标 -->
  <symbol id="icon-lyrics" viewBox="0 0 24 24">
    <path fill="currentColor" d="M9 4v1.38c-.83-.33-1.72-.5-2.61-.5-1.79 0-3.58.68-4.95 2.05l3.33 3.33h1.11v1.11c.86.86 1.98 1.31 3.11 1.36V15H6v3c0 1.1.9 2 2 2h10c1.1 0 2-.9 2-2v-3h-2.5v-1.36c1.13-.05 2.25-.5 3.11-1.36V11.5h1.11l3.33-3.33c-1.37-1.37-3.16-2.05-4.95-2.05-.89 0-1.78.17-2.61.5V4H9z"/>
  </symbol>
  
  <!-- 全屏图标 -->
  <symbol id="icon-fullscreen" viewBox="0 0 24 24">
    <path fill="currentColor" d="M7 14H5v5h5v-2H7v-3zm-2-4h2V7h3V5H5v5zm12 7h-3v2h5v-5h-2v3zM14 5v2h3v3h2V5h-5z"/>
  </symbol>
  
  <!-- 删除图标 -->
  <symbol id="icon-delete" viewBox="0 0 24 24">
    <path fill="currentColor" d="M6 19c0 1.1.9 2 2 2h8c1.1 0 2-.9 2-2V7H6v12zM19 4h-3.5l-1-1h-5l-1 1H5v2h14V4z"/>
  </symbol>
  
  <!-- 关闭图标 -->
  <symbol id="icon-close" viewBox="0 0 24 24">
    <path fill="currentColor" d="M19 6.41L17.59 5 12 10.59 6.41 5 5 6.41 10.59 12 5 17.59 6.41 19 12 13.41 17.59 19 19 17.59 13.41 12z"/>
  </symbol>
  
  <!-- 下载图标 -->
  <symbol id="icon-download" viewBox="0 0 24 24">
    <path fill="currentColor" d="M5,20H19V18H5M19,9H15V3H9V9H5L12,16L19,9Z"/>
  </symbol>
  
  <!-- 上传图标 -->
  <symbol id="icon-upload" viewBox="0 0 24 24">
    <path fill="currentColor" d="M14,2H6A2,2 0 0,0 4,4V20A2,2 0 0,0 6,22H18A2,2 0 0,0 20,20V8L14,2M18,20H6V4H13V9H18V20Z"/>
  </symbol>
  
  <!-- 主题图标 -->
  <symbol id="icon-palette" viewBox="0 0 24 24">
    <path fill="currentColor" d="M12,3C7.03,3 3,7.03 3,12C3,16.97 7.03,21 12,21C13.66,21 15,19.66 15,18C15,17.34 14.78,16.73 14.39,16.24C14.69,15.66 15,14.91 15,14C15,11.24 12.76,9 10,9H8.5C7.67,9 7,8.33 7,7.5C7,6.67 7.67,6 8.5,6C9.33,6 10,6.67 10,7.5H12C12,5.57 10.43,4 8.5,4C6.57,4 5,5.57 5,7.5C5,9.43 6.57,11 8.5,11H10C11.66,11 13,12.34 13,14C13,14.91 12.31,15.6 11.4,15.6C10.49,15.6 9.8,14.91 9.8,14H7.8C7.8,16.01 9.39,17.6 11.4,17.6C13.41,17.6 15,16.01 15,14C15,12.9 14.6,11.9 13.94,11.15C17.23,11.94 19.8,14.77 19.8,18.2C19.8,19.74 18.54,21 17,21C15.46,21 14.2,19.74 14.2,18.2C14.2,16.66 15.46,15.4 17,15.4C18.54,15.4 19.8,16.66 19.8,18.2"/>
  </symbol>
</svg>